# xmcd CD database file
#
# Track frame offsets:
#	150
#	21294
#	45198
#	63339
#	91364
#	115280
#	138852
#	159761
#	179697
#	198770
#
# Disc length: 3081 seconds
#
# Revision: 1
# Processed by: cddbd v1.5.2PL0 Copyright (c) Steve Scherf et al.
# Submitted via: CDex 1.51
#
DISCID=780c070a
DTITLE=Duane Carter - Never Say Never
DYEAR=2016
DGENRE=Jazz
TTITLE0=Duane Carter - Afternoon In Laguna
TTITLE1=Duane Carter - Come Follow Me
TTITLE2=Duane Carter - Estrelas Pretas (Black Stars)
TTITLE3=Duane Carter - Southern Cali Summer
TTITLE4=Duane Carter - Never Say Never
TTITLE5=Duane Carter - You're as Right as Rain
TTITLE6=Duane Carter - Saint-Hood
TTITLE7=Duane Carter - Playa Amador
TTITLE8=Duane Carter - Say What?
TTITLE9=Duane Carter - Just Take My Hand
EXTD=YEAR: 2016
EXTT0=
EXTT1=
EXTT2=
EXTT3=
EXTT4=
EXTT5=
EXTT6=
EXTT7=
EXTT8=
EXTT9=
PLAYORDER=
